<svg width="162" height="162" viewBox="0 0 162 162" fill="none" xmlns="http://www.w3.org/2000/svg">
<path fill-rule="evenodd" clip-rule="evenodd" d="M41.1043 62.0015C35.8312 67.0511 36.2214 79.6966 41.1044 89.7245C45.9874 99.7524 53.0053 106.645 71.2195 116.059C93.7038 127.681 103.182 137.5 99.8086 146.423C97.3834 152.837 105.124 153.142 108.869 147.466C115.97 136.703 107.073 122.417 87.6657 112.241C73.7713 104.956 74.6562 106.39 74.7136 91.2574C74.762 78.5 76.2142 78.3608 71.2195 78.5C64.6642 78.6826 64.6821 83.3517 64.6821 86C64.6821 97.5 64.6821 102 55.6821 91.5C55.0216 90.7293 46.1821 78.7442 48.6819 66.4997C50.1688 59.2162 46.42 56.9111 41.1043 62.0015Z" fill="#48B896"></path>
<path fill-rule="evenodd" clip-rule="evenodd" d="M64.1219 11.3394C58.2471 16.1118 56.078 33.0142 60.7843 43.2843C64.063 50.44 70.1715 57.2221 78.3834 62.8242C84.7614 67.1751 84.7614 67.1751 84.4454 79.9772C84.2909 86.2129 84.2762 90.1064 84.5744 92.5183C85.0257 96.1679 89.496 95.5334 92.7402 93.8016C96.2351 91.936 94.9856 91.491 95.1821 84C95.2655 72.3885 94.6345 74.3196 104.682 80C110.906 83.5189 112.566 89.1911 112.16 94.2534C111.938 97.0333 110.462 99.4751 109.043 101.876C107.74 104.083 107.747 105.48 112.234 105.48C115.682 105.48 120.466 100.916 121.682 96.3042C124.682 84.9312 120.172 76.1045 104.182 66.5C86.0511 54.7395 78.496 49.9427 76.055 46.9991C69.0367 38.5344 66.2754 26.8633 69.1544 17.8218C71.436 10.655 67.8031 8.34875 64.1219 11.3394Z" fill="#48B896"></path>
</svg>
